<svg viewBox="0 0 300 300" fill="none" xmlns="http://www.w3.org/2000/svg">
<circle cx="150" cy="150" r="150" fill="#EAEDF1"/>
<g clip-path="url(#clip0_1_8)">
<path fill-rule="evenodd" clip-rule="evenodd" d="M150.064 92.1364C135.877 92.1364 124.376 103.638 124.376 117.825C124.376 132.012 135.877 143.514 150.064 143.514C164.251 143.514 175.753 132.012 175.753 117.825C175.753 103.638 164.251 92.1364 150.064 92.1364ZM150.064 79.2921C171.345 79.2921 188.597 96.5439 188.597 117.825C188.597 139.106 171.345 156.358 150.064 156.358C128.783 156.358 111.531 139.106 111.531 117.825C111.531 96.5439 128.783 79.2921 150.064 79.2921ZM98.6869 214.793C98.6869 218.34 95.8116 221.215 92.2648 221.215C88.718 221.215 85.8427 218.34 85.8427 214.793V201.313C85.8427 183.579 100.219 169.202 117.953 169.202H182.179C199.914 169.202 214.29 183.579 214.29 201.313V214.793C214.29 218.34 211.415 221.215 207.868 221.215C204.321 221.215 201.446 218.34 201.446 214.793V201.313C201.446 190.672 192.82 182.046 182.179 182.046H117.953C107.313 182.046 98.6869 190.672 98.6869 201.313V214.793Z" fill="#758CA3"/>
</g>
<defs>
<clipPath id="clip0_1_8">
<rect width="128.443" height="141.287" fill="white" transform="translate(85.8427 79.2921)"/>
</clipPath>
</defs>
</svg>
