<svg width="24" height="24" viewBox="0 0 24 24" fill="transparent" xmlns="http://www.w3.org/2000/svg">

    <path d="M4.51677 17.0001C3.52784 15.5201 3 13.78 3 12C3 9.61305 3.94821 7.32387 5.63604 5.63604C7.32387 3.94821 9.61305 3 12 3C13.78 3 15.5201 3.52784 17.0001 4.51677C18.4802 5.50571 19.6337 6.91131 20.3149 8.55585C20.9961 10.2004 21.1743 12.01 20.8271 13.7558C20.4798 15.5016 19.6226 17.1053 18.364 18.364C17.1053 19.6226 15.5016 20.4798 13.7558 20.8271C12.01 21.1743 10.2004 20.9961 8.55585 20.3149C6.91131 19.6337 5.50571 18.4802 4.51677 17.0001Z"
          stroke="currentColor" stroke-width="2" stroke-linecap="round" stroke-linejoin="round"/>
    <path d="M12 17V17.01" stroke="currentColor" stroke-width="2" stroke-linecap="round" stroke-linejoin="round"/>
    <path d="M12 13.5C11.9816 13.1754 12.0692 12.8535 12.2495 12.583C12.4299 12.3125 12.6933 12.1079 13 12C13.3759 11.8563 13.7132 11.6272 13.9856 11.331C14.2579 11.0347 14.4577 10.6792 14.5693 10.2926C14.6809 9.90595 14.7013 9.49869 14.6287 9.10286C14.5562 8.70704 14.3928 8.33345 14.1513 8.01151C13.9099 7.68958 13.597 7.42808 13.2373 7.24762C12.8776 7.06715 12.4809 6.97264 12.0785 6.97152C11.6761 6.97041 11.2789 7.06272 10.9182 7.24118C10.5576 7.41965 10.2432 7.67941 10 8"
          stroke="currentColor" stroke-width="2" stroke-linecap="round" stroke-linejoin="round"/>

    <defs>
        <rect width="24" height="24" fill="white"/>
    </defs>
</svg>
